<svg width="273" height="169" viewBox="0 0 273 169" fill="none" xmlns="http://www.w3.org/2000/svg">
<g filter="url(#filter0_d_4_4341)">
<rect x="48" y="28.5088" width="177" height="72" rx="8" fill="white"/>
<circle cx="84" cy="64.5088" r="24" fill="#F2F1F1"/>
<path d="M89.0499 72.7888C88.0699 73.7388 86.9999 73.5888 85.9699 73.1388C84.8799 72.6788 83.8799 72.6588 82.7299 73.1388C81.2899 73.7588 80.5299 73.5788 79.6699 72.7888C74.7899 67.7588 75.5099 60.0988 81.0499 59.8188C82.3999 59.8888 83.3399 60.5588 84.1299 60.6188C85.3099 60.3788 86.4399 59.6888 87.6999 59.7788C89.2099 59.8988 90.3499 60.4988 91.0999 61.5788C87.9799 63.4488 88.7199 67.5588 91.5799 68.7088C91.0099 70.2088 90.2699 71.6988 89.0399 72.7988L89.0499 72.7888ZM84.0299 59.7588C83.8799 57.5288 85.6899 55.6888 87.7699 55.5088C88.0599 58.0888 85.4299 60.0088 84.0299 59.7588Z" fill="black"/>
<path d="M120.768 49.1088V57.5088H123.444C124.296 57.5088 125.04 57.3408 125.688 56.9808C126.324 56.6328 126.816 56.1408 127.164 55.5048C127.5 54.8688 127.68 54.1368 127.68 53.3088C127.68 52.4808 127.5 51.7488 127.164 51.1128C126.816 50.4888 126.324 49.9968 125.688 49.6368C125.04 49.2888 124.296 49.1088 123.444 49.1088H120.768ZM123.444 56.3088H122.148V50.3088H123.444C124.344 50.3088 125.04 50.5848 125.532 51.1248C126.012 51.6648 126.264 52.3968 126.264 53.3088C126.264 54.2328 126.012 54.9648 125.532 55.5048C125.04 56.0448 124.344 56.3088 123.444 56.3088ZM130.017 57.1968C130.497 57.4608 131.037 57.5808 131.661 57.5808C132.273 57.5808 132.813 57.4608 133.293 57.1968C133.773 56.9328 134.133 56.5728 134.397 56.0928C134.661 55.6128 134.793 55.0608 134.793 54.4368C134.793 53.8248 134.661 53.2848 134.397 52.8048C134.133 52.3248 133.773 51.9528 133.293 51.6888C132.813 51.4248 132.273 51.2928 131.661 51.2928C131.037 51.2928 130.497 51.4248 130.017 51.6888C129.537 51.9528 129.177 52.3248 128.913 52.8048C128.649 53.2848 128.529 53.8248 128.529 54.4368C128.529 55.0608 128.649 55.6128 128.913 56.0928C129.177 56.5728 129.537 56.9328 130.017 57.1968ZM132.969 55.9128C132.633 56.2968 132.201 56.4768 131.661 56.4768C131.109 56.4768 130.677 56.2968 130.353 55.9128C130.017 55.5288 129.861 55.0368 129.861 54.4368C129.861 53.8368 130.017 53.3568 130.353 52.9728C130.677 52.5888 131.109 52.3968 131.661 52.3968C132.201 52.3968 132.633 52.5888 132.969 52.9728C133.305 53.3568 133.473 53.8368 133.473 54.4368C133.473 55.0368 133.305 55.5288 132.969 55.9128ZM135.071 51.3648L137.075 57.5208L138.479 57.5088L139.823 53.3328L141.119 57.5088H142.511L144.551 51.3648H143.231L141.779 56.0688L140.435 51.3648H139.247L137.843 56.0688L136.439 51.3648H135.071ZM150.25 51.9648C149.794 51.5208 149.194 51.2928 148.474 51.2928C147.622 51.2928 146.962 51.5928 146.506 52.1688L146.362 51.3648H145.234V57.5088H146.53V54.4128C146.53 53.7888 146.674 53.3088 146.962 52.9488C147.25 52.5888 147.658 52.4088 148.174 52.4088C148.654 52.4088 149.014 52.5648 149.266 52.8648C149.506 53.1768 149.638 53.6208 149.638 54.1968V57.5088H150.946V54.1248C150.946 53.1408 150.706 52.4208 150.25 51.9648ZM152.124 49.1088V57.5088H153.42V49.1088H152.124ZM155.951 57.1968C156.431 57.4608 156.971 57.5808 157.595 57.5808C158.207 57.5808 158.747 57.4608 159.227 57.1968C159.707 56.9328 160.067 56.5728 160.331 56.0928C160.595 55.6128 160.727 55.0608 160.727 54.4368C160.727 53.8248 160.595 53.2848 160.331 52.8048C160.067 52.3248 159.707 51.9528 159.227 51.6888C158.747 51.4248 158.207 51.2928 157.595 51.2928C156.971 51.2928 156.431 51.4248 155.951 51.6888C155.471 51.9528 155.111 52.3248 154.847 52.8048C154.583 53.2848 154.463 53.8248 154.463 54.4368C154.463 55.0608 154.583 55.6128 154.847 56.0928C155.111 56.5728 155.471 56.9328 155.951 57.1968ZM158.903 55.9128C158.567 56.2968 158.135 56.4768 157.595 56.4768C157.043 56.4768 156.611 56.2968 156.287 55.9128C155.951 55.5288 155.795 55.0368 155.795 54.4368C155.795 53.8368 155.951 53.3568 156.287 52.9728C156.611 52.5888 157.043 52.3968 157.595 52.3968C158.135 52.3968 158.567 52.5888 158.903 52.9728C159.239 53.3568 159.407 53.8368 159.407 54.4368C159.407 55.0368 159.239 55.5288 158.903 55.9128ZM167.649 56.3808H167.397C167.121 56.3808 166.989 56.2368 166.989 55.9488V53.5248C166.989 52.8048 166.761 52.2528 166.317 51.8688C165.861 51.4848 165.225 51.2928 164.409 51.2928C163.629 51.2928 163.005 51.4728 162.525 51.8088C162.045 52.1448 161.769 52.6248 161.709 53.2368H162.981C163.029 52.9728 163.173 52.7568 163.413 52.5888C163.653 52.4208 163.965 52.3368 164.349 52.3368C164.769 52.3368 165.105 52.4448 165.345 52.6368C165.585 52.8288 165.705 53.1048 165.705 53.4408V53.8128H164.157C163.293 53.8128 162.645 53.9928 162.201 54.3288C161.745 54.6648 161.529 55.1568 161.529 55.7808C161.529 56.3448 161.733 56.7888 162.153 57.1008C162.561 57.4248 163.113 57.5808 163.809 57.5808C164.697 57.5808 165.369 57.2328 165.837 56.5248C165.837 56.8488 165.921 57.0888 166.101 57.2568C166.269 57.4248 166.557 57.5088 166.965 57.5088H167.649V56.3808ZM165.705 54.7728V54.9888C165.693 55.4688 165.537 55.8528 165.237 56.1408C164.937 56.4288 164.517 56.5728 163.989 56.5728C163.629 56.5728 163.353 56.5008 163.149 56.3328C162.945 56.1768 162.849 55.9608 162.849 55.6968C162.849 55.3968 162.957 55.1688 163.173 55.0128C163.389 54.8568 163.689 54.7728 164.097 54.7728H165.705ZM174.319 49.1088H173.023V52.2168C172.807 51.9288 172.543 51.7128 172.207 51.5448C171.871 51.3768 171.475 51.2928 171.031 51.2928C170.479 51.2928 169.975 51.4248 169.543 51.6888C169.099 51.9528 168.751 52.3128 168.499 52.7928C168.247 53.2728 168.127 53.8128 168.127 54.4368C168.127 55.0848 168.247 55.6368 168.499 56.1168C168.739 56.5968 169.087 56.9568 169.531 57.2088C169.963 57.4608 170.467 57.5808 171.031 57.5808C171.871 57.5808 172.543 57.2568 173.035 56.5848L173.191 57.5088H174.319V49.1088ZM172.543 55.9248C172.207 56.3088 171.775 56.4888 171.247 56.4888C170.707 56.4888 170.275 56.3088 169.951 55.9248C169.615 55.5408 169.459 55.0488 169.459 54.4368C169.459 53.8368 169.615 53.3568 169.951 52.9728C170.275 52.5888 170.707 52.3968 171.247 52.3968C171.775 52.3968 172.207 52.5888 172.543 52.9728C172.867 53.3568 173.035 53.8488 173.035 54.4608C173.035 55.0608 172.867 55.5528 172.543 55.9248ZM179.916 57.1968C180.396 57.4608 180.936 57.5808 181.56 57.5808C182.172 57.5808 182.712 57.4608 183.192 57.1968C183.672 56.9328 184.032 56.5728 184.296 56.0928C184.56 55.6128 184.692 55.0608 184.692 54.4368C184.692 53.8248 184.56 53.2848 184.296 52.8048C184.032 52.3248 183.672 51.9528 183.192 51.6888C182.712 51.4248 182.172 51.2928 181.56 51.2928C180.936 51.2928 180.396 51.4248 179.916 51.6888C179.436 51.9528 179.076 52.3248 178.812 52.8048C178.548 53.2848 178.428 53.8248 178.428 54.4368C178.428 55.0608 178.548 55.6128 178.812 56.0928C179.076 56.5728 179.436 56.9328 179.916 57.1968ZM182.868 55.9128C182.532 56.2968 182.1 56.4768 181.56 56.4768C181.008 56.4768 180.576 56.2968 180.252 55.9128C179.916 55.5288 179.76 55.0368 179.76 54.4368C179.76 53.8368 179.916 53.3568 180.252 52.9728C180.576 52.5888 181.008 52.3968 181.56 52.3968C182.1 52.3968 182.532 52.5888 182.868 52.9728C183.204 53.3568 183.372 53.8368 183.372 54.4368C183.372 55.0368 183.204 55.5288 182.868 55.9128ZM190.75 51.9648C190.294 51.5208 189.694 51.2928 188.974 51.2928C188.122 51.2928 187.462 51.5928 187.006 52.1688L186.862 51.3648H185.734V57.5088H187.03V54.4128C187.03 53.7888 187.174 53.3088 187.462 52.9488C187.75 52.5888 188.158 52.4088 188.674 52.4088C189.154 52.4088 189.514 52.5648 189.766 52.8648C190.006 53.1768 190.138 53.6208 190.138 54.1968V57.5088H191.446V54.1248C191.446 53.1408 191.206 52.4208 190.75 51.9648ZM196.091 52.5048V55.8408C196.091 56.4168 196.223 56.8368 196.487 57.1008C196.751 57.3768 197.183 57.5088 197.771 57.5088H199.019V56.3688H198.035C197.795 56.3688 197.639 56.3208 197.543 56.2248C197.447 56.1288 197.399 55.9488 197.399 55.7088V52.5048H198.875V51.3648H197.399V49.6488H196.091V51.3648H195.023V52.5048H196.091ZM204.73 51.9648C204.274 51.5208 203.674 51.2928 202.942 51.2928C202.114 51.2928 201.466 51.6168 201.01 52.2528V49.1088H199.714V57.5088H201.01V54.4008C201.01 53.7888 201.154 53.3088 201.442 52.9488C201.73 52.5888 202.138 52.4088 202.654 52.4088C203.134 52.4088 203.494 52.5648 203.746 52.8648C203.998 53.1768 204.13 53.6208 204.13 54.1968V57.5088H205.426V54.1248C205.426 53.1408 205.186 52.4208 204.73 51.9648ZM206.749 52.7928C206.497 53.2728 206.377 53.8248 206.377 54.4488C206.377 55.0728 206.497 55.6248 206.761 56.0928C207.025 56.5728 207.385 56.9328 207.865 57.1968C208.345 57.4608 208.897 57.5808 209.545 57.5808C210.277 57.5808 210.889 57.3888 211.381 56.9808C211.873 56.5848 212.173 56.0688 212.293 55.4448H210.997C210.901 55.7928 210.721 56.0568 210.457 56.2488C210.181 56.4408 209.845 56.5248 209.449 56.5248C208.945 56.5248 208.537 56.3688 208.237 56.0568C207.925 55.7448 207.757 55.3248 207.733 54.7848V54.7128H212.365C212.389 54.5448 212.401 54.3888 212.401 54.2208C212.389 53.6328 212.257 53.1168 211.993 52.6728C211.729 52.2408 211.381 51.8928 210.925 51.6528C210.469 51.4128 209.953 51.2928 209.365 51.2928C208.777 51.2928 208.261 51.4248 207.805 51.6888C207.349 51.9528 207.001 52.3128 206.749 52.7928ZM211.081 53.7648H207.781C207.829 53.3328 207.997 52.9968 208.309 52.7328C208.621 52.4688 208.981 52.3368 209.413 52.3368C209.869 52.3368 210.241 52.4688 210.541 52.7208C210.841 52.9728 211.021 53.3208 211.081 53.7648Z" fill="#515251"/>
<path d="M120.08 80.5088L125.2 66.5088H128.8L133.88 80.5088H130.66L129.58 77.4488H124.26L123.18 80.5088H120.08ZM125.06 75.0288H128.76L126.9 69.7088L125.06 75.0288ZM143.525 70.7688C144.245 71.2088 144.805 71.8088 145.205 72.6088C145.605 73.4088 145.825 74.3488 145.825 75.3888C145.825 76.4488 145.605 77.3688 145.205 78.1488C144.805 78.9488 144.245 79.5488 143.525 79.9888C142.805 80.4288 141.985 80.6288 141.065 80.6288C139.745 80.6288 138.705 80.1688 137.965 79.2088V84.5088H135.145V70.2288H137.605L137.885 71.6488C138.225 71.1888 138.665 70.8088 139.205 70.5288C139.745 70.2488 140.365 70.1088 141.085 70.1088C142.005 70.1088 142.805 70.3288 143.525 70.7688ZM142.265 77.5088C142.725 76.9488 142.965 76.2288 142.965 75.3488C142.965 74.4688 142.725 73.7688 142.265 73.2288C141.785 72.6888 141.185 72.4088 140.425 72.4088C139.665 72.4088 139.045 72.6888 138.605 73.2288C138.145 73.7688 137.925 74.4688 137.925 75.3488C137.925 76.2488 138.145 76.9688 138.605 77.5088C139.045 78.0688 139.665 78.3288 140.425 78.3288C141.185 78.3288 141.785 78.0688 142.265 77.5088ZM155.971 70.7688C156.691 71.2088 157.251 71.8088 157.651 72.6088C158.051 73.4088 158.271 74.3488 158.271 75.3888C158.271 76.4488 158.051 77.3688 157.651 78.1488C157.251 78.9488 156.691 79.5488 155.971 79.9888C155.251 80.4288 154.431 80.6288 153.511 80.6288C152.191 80.6288 151.151 80.1688 150.411 79.2088V84.5088H147.591V70.2288H150.051L150.331 71.6488C150.671 71.1888 151.111 70.8088 151.651 70.5288C152.191 70.2488 152.811 70.1088 153.531 70.1088C154.451 70.1088 155.251 70.3288 155.971 70.7688ZM154.711 77.5088C155.171 76.9488 155.411 76.2288 155.411 75.3488C155.411 74.4688 155.171 73.7688 154.711 73.2288C154.231 72.6888 153.631 72.4088 152.871 72.4088C152.111 72.4088 151.491 72.6888 151.051 73.2288C150.591 73.7688 150.371 74.4688 150.371 75.3488C150.371 76.2488 150.591 76.9688 151.051 77.5088C151.491 78.0688 152.111 78.3288 152.871 78.3288C153.631 78.3288 154.231 78.0688 154.711 77.5088ZM162.259 77.0888C162.299 77.5488 162.519 77.9088 162.919 78.1888C163.319 78.4688 163.819 78.6088 164.459 78.6088C165.059 78.6088 165.519 78.5288 165.879 78.3288C166.219 78.1288 166.399 77.8488 166.399 77.4888C166.399 77.2288 166.319 77.0288 166.159 76.8888C165.999 76.7688 165.759 76.6688 165.479 76.6088C165.179 76.5488 164.699 76.4688 164.039 76.3888C163.119 76.2688 162.379 76.1288 161.779 75.9288C161.179 75.7488 160.699 75.4488 160.339 75.0488C159.979 74.6488 159.799 74.1288 159.799 73.4488C159.799 72.7888 159.979 72.2088 160.339 71.6888C160.699 71.1688 161.219 70.7688 161.899 70.4888C162.559 70.2088 163.319 70.0688 164.199 70.0688C165.599 70.0888 166.719 70.3888 167.579 70.9688C168.439 71.5688 168.899 72.3688 168.979 73.4088H166.299C166.259 73.0288 166.039 72.7088 165.679 72.4688C165.319 72.2288 164.839 72.0888 164.279 72.0888C163.739 72.0888 163.299 72.1888 162.979 72.3888C162.659 72.5888 162.499 72.8688 162.499 73.1888C162.499 73.4288 162.579 73.6088 162.759 73.7288C162.919 73.8488 163.159 73.9488 163.439 73.9888C163.719 74.0488 164.179 74.1088 164.839 74.1688C166.219 74.3288 167.279 74.6288 168.019 75.0688C168.759 75.5088 169.139 76.2488 169.139 77.2888C169.139 77.9688 168.939 78.5488 168.539 79.0488C168.139 79.5688 167.599 79.9488 166.899 80.2288C166.199 80.5088 165.399 80.6288 164.479 80.6288C163.039 80.6288 161.879 80.3288 160.999 79.6888C160.099 79.0488 159.619 78.1888 159.579 77.0888H162.259ZM171.62 72.6088H169.92V70.2288H171.62V67.3488H174.44V70.2288H176.78V72.6088H174.44V77.1088C174.44 77.4688 174.5 77.7288 174.66 77.8888C174.82 78.0488 175.08 78.1288 175.44 78.1288H176.9V80.5088H174.56C172.6 80.5088 171.62 79.5288 171.62 77.5688V72.6088ZM180.292 79.9888C179.472 79.5488 178.832 78.9288 178.392 78.1288C177.952 77.3288 177.732 76.4088 177.732 75.3688C177.732 74.3288 177.952 73.4088 178.392 72.6088C178.832 71.8088 179.472 71.2088 180.292 70.7688C181.112 70.3288 182.072 70.1088 183.152 70.1088C184.232 70.1088 185.172 70.3288 185.992 70.7688C186.812 71.2088 187.452 71.8088 187.892 72.6088C188.332 73.4088 188.572 74.3288 188.572 75.3688C188.572 76.4288 188.332 77.3488 187.892 78.1488C187.452 78.9488 186.812 79.5488 185.992 79.9888C185.172 80.4288 184.232 80.6288 183.152 80.6288C182.072 80.6288 181.112 80.4288 180.292 79.9888ZM185.012 77.5088C185.472 76.9688 185.712 76.2488 185.712 75.3688C185.712 74.4888 185.472 73.7888 185.012 73.2288C184.552 72.6888 183.932 72.4088 183.152 72.4088C182.372 72.4088 181.752 72.6888 181.292 73.2288C180.832 73.7888 180.612 74.4888 180.612 75.3688C180.612 76.2488 180.832 76.9688 181.292 77.5088C181.752 78.0688 182.372 78.3288 183.152 78.3288C183.932 78.3288 184.552 78.0688 185.012 77.5088ZM196.585 70.2288V72.7888H195.465C194.665 72.7888 194.065 73.0288 193.705 73.5088C193.325 73.9888 193.145 74.6488 193.145 75.4688V80.5088H190.325V70.2288H192.885L193.145 71.7688C193.445 71.2688 193.825 70.8888 194.285 70.6288C194.725 70.3688 195.345 70.2288 196.105 70.2288H196.585ZM197.952 72.6088C198.392 71.8088 198.992 71.2088 199.772 70.7688C200.552 70.3288 201.452 70.1088 202.492 70.1088C203.532 70.1088 204.432 70.3288 205.232 70.7288C206.032 71.1288 206.652 71.7088 207.092 72.4488C207.532 73.1888 207.772 74.0488 207.792 75.0488C207.792 75.4088 207.752 75.7288 207.712 76.0088H200.252V76.0888C200.312 76.8488 200.552 77.4288 200.972 77.8488C201.372 78.2888 201.952 78.4888 202.672 78.4888C203.232 78.4888 203.712 78.3688 204.092 78.1288C204.472 77.8888 204.732 77.5088 204.852 77.0288H207.632C207.512 77.7088 207.252 78.3288 206.852 78.8688C206.432 79.4288 205.892 79.8488 205.212 80.1688C204.532 80.4888 203.752 80.6288 202.872 80.6288C201.712 80.6288 200.732 80.4288 199.892 79.9888C199.052 79.5688 198.412 78.9688 197.972 78.1688C197.532 77.3688 197.312 76.4488 197.312 75.3888C197.312 74.3288 197.512 73.4088 197.952 72.6088ZM204.972 74.1688C204.872 73.5488 204.612 73.0688 204.192 72.7288C203.772 72.3888 203.252 72.2088 202.612 72.2088C201.992 72.2088 201.472 72.3888 201.052 72.7488C200.632 73.1088 200.392 73.5688 200.312 74.1688H204.972Z" fill="#515251"/>
</g>
<defs>
<filter id="filter0_d_4_4341" x="0" y="0.508789" width="273" height="168" filterUnits="userSpaceOnUse" color-interpolation-filters="sRGB">
<feFlood flood-opacity="0" result="BackgroundImageFix"/>
<feColorMatrix in="SourceAlpha" type="matrix" values="0 0 0 0 0 0 0 0 0 0 0 0 0 0 0 0 0 0 127 0" result="hardAlpha"/>
<feOffset dy="20"/>
<feGaussianBlur stdDeviation="24"/>
<feColorMatrix type="matrix" values="0 0 0 0 0.666667 0 0 0 0 0.666667 0 0 0 0 0.666667 0 0 0 0.29 0"/>
<feBlend mode="normal" in2="BackgroundImageFix" result="effect1_dropShadow_4_4341"/>
<feBlend mode="normal" in="SourceGraphic" in2="effect1_dropShadow_4_4341" result="shape"/>
</filter>
</defs>
</svg>
