<svg width="294" height="169" viewBox="0 0 294 169" fill="none" xmlns="http://www.w3.org/2000/svg">
<g filter="url(#filter0_d_4_4349)">
<rect x="48" y="28.5088" width="198" height="72" rx="8" fill="white"/>
<circle cx="84" cy="64.5088" r="24" fill="#F2F1F1"/>
<g clip-path="url(#clip0_4_4349)">
<path d="M83.2837 63.9504L73.2349 74.4786C73.3477 74.8786 73.5505 75.2474 73.8277 75.5569C74.105 75.8664 74.4493 76.1085 74.8344 76.2645C75.2195 76.4206 75.6352 76.4865 76.0497 76.4573C76.4642 76.4281 76.8666 76.3045 77.226 76.096L88.5329 69.6563L83.2837 63.9504Z" fill="#EA4335"/>
<path d="M93.4449 62.161L88.5555 59.3604L83.0518 64.19L88.5779 69.6413L93.4301 66.8707C93.86 66.6457 94.22 66.3072 94.4712 65.8921C94.7224 65.477 94.8552 65.001 94.8552 64.5158C94.8552 64.0306 94.7224 63.5546 94.4712 63.1395C94.22 62.7244 93.86 62.386 93.4301 62.1609H93.4451L93.4449 62.161Z" fill="#FBBC04"/>
<path d="M73.2349 54.5007C73.1742 54.7253 73.144 54.957 73.145 55.1896V73.7898C73.1457 74.0223 73.1759 74.2538 73.2349 74.4787L83.6283 64.2201L73.2349 54.5007Z" fill="#4285F4"/>
<path d="M83.3586 64.4896L88.5553 59.3603L77.2635 52.8907C76.8386 52.6419 76.3554 52.5101 75.8631 52.5088C74.6413 52.5064 73.5671 53.3173 73.2349 54.4932L83.3586 64.4896Z" fill="#34A853"/>
</g>
<path d="M120.936 51.0768C120.6 51.7248 120.444 52.4688 120.444 53.3088C120.444 54.1488 120.612 54.8928 120.948 55.5408C121.284 56.1888 121.752 56.6928 122.352 57.0528C122.952 57.4128 123.636 57.5808 124.416 57.5808C125.016 57.5808 125.544 57.4608 125.988 57.2088C126.432 56.9688 126.78 56.6688 127.02 56.3088L127.164 57.5088H128.208V52.9128H124.56V54.0768H126.888V54.2808C126.852 54.9408 126.612 55.4568 126.156 55.8168C125.7 56.1888 125.148 56.3688 124.476 56.3688C123.948 56.3688 123.48 56.2488 123.084 55.9848C122.688 55.7208 122.388 55.3608 122.172 54.9048C121.956 54.4488 121.86 53.9088 121.86 53.3088C121.86 52.7088 121.968 52.1808 122.184 51.7248C122.4 51.2688 122.7 50.9088 123.096 50.6448C123.492 50.3808 123.96 50.2488 124.488 50.2488C125.064 50.2488 125.544 50.4048 125.94 50.7048C126.336 51.0168 126.6 51.4368 126.744 51.9648H128.112C127.968 51.0768 127.572 50.3568 126.936 49.8288C126.288 49.3008 125.484 49.0368 124.524 49.0368C123.696 49.0368 122.976 49.2168 122.364 49.5768C121.74 49.9368 121.272 50.4288 120.936 51.0768ZM129.757 52.7928C129.505 53.2728 129.385 53.8248 129.385 54.4488C129.385 55.0728 129.505 55.6248 129.769 56.0928C130.033 56.5728 130.393 56.9328 130.873 57.1968C131.353 57.4608 131.905 57.5808 132.553 57.5808C133.285 57.5808 133.897 57.3888 134.389 56.9808C134.881 56.5848 135.181 56.0688 135.301 55.4448H134.005C133.909 55.7928 133.729 56.0568 133.465 56.2488C133.189 56.4408 132.853 56.5248 132.457 56.5248C131.953 56.5248 131.545 56.3688 131.245 56.0568C130.933 55.7448 130.765 55.3248 130.741 54.7848V54.7128H135.373C135.397 54.5448 135.409 54.3888 135.409 54.2208C135.397 53.6328 135.265 53.1168 135.001 52.6728C134.737 52.2408 134.389 51.8928 133.933 51.6528C133.477 51.4128 132.961 51.2928 132.373 51.2928C131.785 51.2928 131.269 51.4248 130.813 51.6888C130.357 51.9528 130.009 52.3128 129.757 52.7928ZM134.089 53.7648H130.789C130.837 53.3328 131.005 52.9968 131.317 52.7328C131.629 52.4688 131.989 52.3368 132.421 52.3368C132.877 52.3368 133.249 52.4688 133.549 52.7208C133.849 52.9728 134.029 53.3208 134.089 53.7648ZM136.805 52.5048V55.8408C136.805 56.4168 136.937 56.8368 137.201 57.1008C137.465 57.3768 137.897 57.5088 138.485 57.5088H139.733V56.3688H138.749C138.509 56.3688 138.353 56.3208 138.257 56.2248C138.161 56.1288 138.113 55.9488 138.113 55.7088V52.5048H139.589V51.3648H138.113V49.6488H136.805V51.3648H135.737V52.5048H136.805ZM144.759 57.1968C145.239 57.4608 145.779 57.5808 146.403 57.5808C147.015 57.5808 147.555 57.4608 148.035 57.1968C148.515 56.9328 148.875 56.5728 149.139 56.0928C149.403 55.6128 149.535 55.0608 149.535 54.4368C149.535 53.8248 149.403 53.2848 149.139 52.8048C148.875 52.3248 148.515 51.9528 148.035 51.6888C147.555 51.4248 147.015 51.2928 146.403 51.2928C145.779 51.2928 145.239 51.4248 144.759 51.6888C144.279 51.9528 143.919 52.3248 143.655 52.8048C143.391 53.2848 143.271 53.8248 143.271 54.4368C143.271 55.0608 143.391 55.6128 143.655 56.0928C143.919 56.5728 144.279 56.9328 144.759 57.1968ZM147.711 55.9128C147.375 56.2968 146.943 56.4768 146.403 56.4768C145.851 56.4768 145.419 56.2968 145.095 55.9128C144.759 55.5288 144.603 55.0368 144.603 54.4368C144.603 53.8368 144.759 53.3568 145.095 52.9728C145.419 52.5888 145.851 52.3968 146.403 52.3968C146.943 52.3968 147.375 52.5888 147.711 52.9728C148.047 53.3568 148.215 53.8368 148.215 54.4368C148.215 55.0368 148.047 55.5288 147.711 55.9128ZM155.593 51.9648C155.137 51.5208 154.537 51.2928 153.817 51.2928C152.965 51.2928 152.305 51.5928 151.849 52.1688L151.705 51.3648H150.577V57.5088H151.873V54.4128C151.873 53.7888 152.017 53.3088 152.305 52.9488C152.593 52.5888 153.001 52.4088 153.517 52.4088C153.997 52.4088 154.357 52.5648 154.609 52.8648C154.849 53.1768 154.981 53.6208 154.981 54.1968V57.5088H156.289V54.1248C156.289 53.1408 156.049 52.4208 155.593 51.9648Z" fill="#515251"/>
<path d="M121.48 69.7688C122.04 68.6888 122.84 67.8688 123.88 67.2688C124.92 66.6888 126.16 66.3888 127.58 66.3888C128.68 66.3888 129.68 66.6088 130.56 67.0288C131.44 67.4688 132.14 68.0688 132.68 68.8288C133.22 69.6088 133.56 70.4888 133.68 71.4888H130.72C130.52 70.7088 130.16 70.0888 129.6 69.6288C129.04 69.1688 128.34 68.9288 127.5 68.9288C126.72 68.9288 126.04 69.1288 125.48 69.5088C124.9 69.9088 124.46 70.4488 124.16 71.1288C123.84 71.8288 123.7 72.6288 123.7 73.5088C123.7 74.8888 124.02 75.9888 124.7 76.8288C125.38 77.6688 126.3 78.0888 127.5 78.0888C128.36 78.0888 129.12 77.8688 129.8 77.3888C130.46 76.9088 130.86 76.2088 131 75.2888V75.1088H127.52V72.7288H133.78V80.5088H131.7L131.38 78.7688C130.96 79.3288 130.4 79.7688 129.72 80.1088C129.02 80.4688 128.22 80.6288 127.3 80.6288C125.98 80.6288 124.8 80.3488 123.8 79.7488C122.8 79.1688 122.02 78.3288 121.46 77.2488C120.9 76.1688 120.64 74.9288 120.64 73.5088C120.64 72.0888 120.92 70.8488 121.48 69.7688ZM138.32 79.9888C137.5 79.5488 136.86 78.9288 136.42 78.1288C135.98 77.3288 135.76 76.4088 135.76 75.3688C135.76 74.3288 135.98 73.4088 136.42 72.6088C136.86 71.8088 137.5 71.2088 138.32 70.7688C139.14 70.3288 140.1 70.1088 141.18 70.1088C142.26 70.1088 143.2 70.3288 144.02 70.7688C144.84 71.2088 145.48 71.8088 145.92 72.6088C146.36 73.4088 146.6 74.3288 146.6 75.3688C146.6 76.4288 146.36 77.3488 145.92 78.1488C145.48 78.9488 144.84 79.5488 144.02 79.9888C143.2 80.4288 142.26 80.6288 141.18 80.6288C140.1 80.6288 139.14 80.4288 138.32 79.9888ZM143.04 77.5088C143.5 76.9688 143.74 76.2488 143.74 75.3688C143.74 74.4888 143.5 73.7888 143.04 73.2288C142.58 72.6888 141.96 72.4088 141.18 72.4088C140.4 72.4088 139.78 72.6888 139.32 73.2288C138.86 73.7888 138.64 74.4888 138.64 75.3688C138.64 76.2488 138.86 76.9688 139.32 77.5088C139.78 78.0688 140.4 78.3288 141.18 78.3288C141.96 78.3288 142.58 78.0688 143.04 77.5088ZM150.513 79.9888C149.693 79.5488 149.053 78.9288 148.613 78.1288C148.173 77.3288 147.953 76.4088 147.953 75.3688C147.953 74.3288 148.173 73.4088 148.613 72.6088C149.053 71.8088 149.693 71.2088 150.513 70.7688C151.333 70.3288 152.293 70.1088 153.373 70.1088C154.453 70.1088 155.393 70.3288 156.213 70.7688C157.033 71.2088 157.673 71.8088 158.113 72.6088C158.553 73.4088 158.793 74.3288 158.793 75.3688C158.793 76.4288 158.553 77.3488 158.113 78.1488C157.673 78.9488 157.033 79.5488 156.213 79.9888C155.393 80.4288 154.453 80.6288 153.373 80.6288C152.293 80.6288 151.333 80.4288 150.513 79.9888ZM155.233 77.5088C155.693 76.9688 155.933 76.2488 155.933 75.3688C155.933 74.4888 155.693 73.7888 155.233 73.2288C154.773 72.6888 154.153 72.4088 153.373 72.4088C152.593 72.4088 151.973 72.6888 151.513 73.2288C151.053 73.7888 150.833 74.4888 150.833 75.3688C150.833 76.2488 151.053 76.9688 151.513 77.5088C151.973 78.0688 152.593 78.3288 153.373 78.3288C154.153 78.3288 154.773 78.0688 155.233 77.5088ZM170.825 70.2288V80.2088C170.825 81.5688 170.365 82.6288 169.485 83.4288C168.585 84.2288 167.205 84.6288 165.325 84.6288C163.865 84.6288 162.685 84.3088 161.805 83.6688C160.905 83.0288 160.425 82.1288 160.365 80.9488H163.205C163.325 81.4488 163.585 81.8288 163.985 82.0888C164.385 82.3688 164.905 82.4888 165.545 82.4888C166.345 82.4888 166.965 82.2888 167.405 81.8888C167.845 81.4888 168.065 80.9088 168.065 80.1088V79.0288C167.305 79.9888 166.245 80.4488 164.885 80.4488C163.965 80.4488 163.165 80.2488 162.445 79.8088C161.725 79.3888 161.145 78.7888 160.745 78.0088C160.345 77.2288 160.145 76.3088 160.145 75.2688C160.145 74.2488 160.345 73.3488 160.745 72.5488C161.145 71.7688 161.725 71.1688 162.445 70.7288C163.165 70.3088 163.985 70.0888 164.905 70.0888C166.245 70.0888 167.305 70.6088 168.105 71.6488L168.345 70.2288H170.825ZM167.365 77.3888C167.805 76.8688 168.045 76.1688 168.045 75.3088C168.045 74.4488 167.805 73.7488 167.365 73.1888C166.905 72.6488 166.305 72.3688 165.545 72.3688C164.785 72.3688 164.165 72.6488 163.705 73.1888C163.245 73.7288 163.025 74.4288 163.025 75.2888C163.025 76.1688 163.245 76.8688 163.705 77.3888C164.165 77.9288 164.785 78.1888 165.545 78.1888C166.305 78.1888 166.905 77.9288 167.365 77.3888ZM172.991 66.5088H175.811V80.5088H172.991V66.5088ZM178.216 72.6088C178.656 71.8088 179.256 71.2088 180.036 70.7688C180.816 70.3288 181.716 70.1088 182.756 70.1088C183.796 70.1088 184.696 70.3288 185.496 70.7288C186.296 71.1288 186.916 71.7088 187.356 72.4488C187.796 73.1888 188.036 74.0488 188.056 75.0488C188.056 75.4088 188.016 75.7288 187.976 76.0088H180.516V76.0888C180.576 76.8488 180.816 77.4288 181.236 77.8488C181.636 78.2888 182.216 78.4888 182.936 78.4888C183.496 78.4888 183.976 78.3688 184.356 78.1288C184.736 77.8888 184.996 77.5088 185.116 77.0288H187.896C187.776 77.7088 187.516 78.3288 187.116 78.8688C186.696 79.4288 186.156 79.8488 185.476 80.1688C184.796 80.4888 184.016 80.6288 183.136 80.6288C181.976 80.6288 180.996 80.4288 180.156 79.9888C179.316 79.5688 178.676 78.9688 178.236 78.1688C177.796 77.3688 177.576 76.4488 177.576 75.3888C177.576 74.3288 177.776 73.4088 178.216 72.6088ZM185.236 74.1688C185.136 73.5488 184.876 73.0688 184.456 72.7288C184.036 72.3888 183.516 72.2088 182.876 72.2088C182.256 72.2088 181.736 72.3888 181.316 72.7488C180.896 73.1088 180.656 73.5688 180.576 74.1688H185.236ZM200.878 66.5088C201.878 66.5088 202.758 66.7088 203.518 67.0888C204.278 67.4688 204.878 68.0088 205.298 68.7088C205.718 69.4288 205.938 70.2488 205.938 71.1688C205.938 72.1088 205.718 72.9288 205.298 73.6288C204.878 74.3288 204.278 74.8688 203.518 75.2488C202.758 75.6288 201.878 75.8088 200.878 75.8088H198.178V80.5088H195.178V66.5088H200.878ZM198.178 73.3088H200.598C201.298 73.3088 201.858 73.1288 202.278 72.7288C202.678 72.3488 202.898 71.8288 202.898 71.1688C202.898 70.5088 202.678 69.9888 202.278 69.5888C201.858 69.2088 201.298 69.0088 200.598 69.0088H198.178V73.3088ZM207.6 66.5088H210.42V80.5088H207.6V66.5088ZM222.705 78.1288V80.5088H221.265C219.965 80.5088 219.325 79.9488 219.365 78.8288C218.985 79.4288 218.525 79.8688 217.985 80.1688C217.425 80.4888 216.765 80.6288 216.005 80.6288C214.845 80.6288 213.925 80.3688 213.225 79.8488C212.525 79.3288 212.185 78.5688 212.185 77.6088C212.185 76.5288 212.585 75.6888 213.385 75.0888C214.185 74.4888 215.365 74.1888 216.905 74.1888H218.945V73.6888C218.945 73.2288 218.765 72.8688 218.425 72.5888C218.065 72.3088 217.605 72.1688 217.025 72.1688C216.505 72.1688 216.065 72.2888 215.745 72.5088C215.405 72.7488 215.205 73.0488 215.145 73.4288H212.425C212.505 72.3888 212.985 71.5688 213.825 70.9888C214.665 70.4088 215.765 70.1088 217.165 70.1088C218.605 70.1088 219.725 70.4288 220.525 71.0688C221.325 71.7088 221.725 72.6488 221.725 73.8488V77.4688C221.725 77.7288 221.765 77.9088 221.885 77.9888C221.985 78.0888 222.145 78.1288 222.385 78.1288H222.705ZM218.945 76.0688H216.885C216.285 76.0688 215.825 76.1888 215.505 76.4288C215.185 76.6688 215.025 76.9888 215.025 77.4088C215.025 77.7688 215.145 78.0688 215.425 78.2688C215.705 78.4888 216.065 78.5888 216.545 78.5888C217.265 78.5888 217.845 78.3888 218.285 77.9688C218.705 77.5488 218.925 76.9888 218.945 76.2688V76.0688ZM225.644 70.2288L228.144 77.6088L230.584 70.2288H233.604L229.044 81.9688C228.804 82.6088 228.564 83.0888 228.364 83.4488C228.144 83.8088 227.864 84.0688 227.544 84.2488C227.224 84.4288 226.804 84.5088 226.284 84.5088H223.544V82.1288H225.104C225.464 82.1288 225.724 82.0688 225.884 81.9488C226.044 81.8288 226.184 81.6088 226.344 81.2488L226.604 80.5688L222.644 70.2288H225.644Z" fill="#515251"/>
</g>
<defs>
<filter id="filter0_d_4_4349" x="0" y="0.508789" width="294" height="168" filterUnits="userSpaceOnUse" color-interpolation-filters="sRGB">
<feFlood flood-opacity="0" result="BackgroundImageFix"/>
<feColorMatrix in="SourceAlpha" type="matrix" values="0 0 0 0 0 0 0 0 0 0 0 0 0 0 0 0 0 0 127 0" result="hardAlpha"/>
<feOffset dy="20"/>
<feGaussianBlur stdDeviation="24"/>
<feColorMatrix type="matrix" values="0 0 0 0 0.666667 0 0 0 0 0.666667 0 0 0 0 0.666667 0 0 0 0.29 0"/>
<feBlend mode="normal" in2="BackgroundImageFix" result="effect1_dropShadow_4_4349"/>
<feBlend mode="normal" in="SourceGraphic" in2="effect1_dropShadow_4_4349" result="shape"/>
</filter>
<clipPath id="clip0_4_4349">
<rect width="21.7102" height="24" fill="white" transform="translate(73.145 52.5088)"/>
</clipPath>
</defs>
</svg>
